<svg xmlns="http://www.w3.org/2000/svg" viewBox="0 0 24 24">
    <path fill-rule="evenodd" d="M12.207 2.793a3.121 3.121 0 0 0-4.414 0l-.5.5 1.414 1.414.5-.5a1.121 1.121 0 0 1 1.586 1.586l-1.5 1.5 1.414 1.414 1.5-1.5a3.121 3.121 0 0 0 0-4.414ZM15.5 3a1 1 0 1 1-2 0 1 1 0 0 1 2 0ZM5.395 18.567l-.961-.962 3.114-6.229 4.076 4.076-6.23 3.115ZM5 21l-3-3L7 8l8 8-10 5Zm13-6a1.5 1.5 0 1 0 0-3 1.5 1.5 0 0 0 0 3Zm.207-5.793a1.121 1.121 0 0 1 1.586 1.586l-.5.5 1.414 1.414.5-.5a3.121 3.121 0 0 0-4.414-4.414l-3.5 3.5 1.414 1.414 3.5-3.5Zm.5-4.5-6 6-1.414-1.414 6-6 1.414 1.414Z" clip-rule="evenodd"></path>
</svg>