<svg viewBox="0 0 24 24" xmlns="http://www.w3.org/2000/svg">
    <rect x="16" y="3.5" width="7" height="2"></rect>
    <rect x="18.5" y="1" width="2" height="7"></rect>
    <path fill-rule="evenodd" clip-rule="evenodd" d="M14 3.22302C13.3568 3.07706 12.6874 3 12 3C7.02944 3 3 7.02944 3 12C3 16.9706 7.02944 21 12 21C16.9706 21 21 16.9706 21 12C21 11.3126 20.9229 10.6432 20.777 10H18.7101C18.8987 10.6337 19 11.305 19 12C19 15.866 15.866 19 12 19C8.13401 19 5 15.866 5 12C5 8.13401 8.13401 5 12 5C12.695 5 13.3663 5.10128 14 5.28988V3.22302ZM16 9H13V12H16V10V9ZM8 9H11V12H8V9ZM9.05154 16.6317C8.27089 16.0853 7.68755 15.3341 7.16795 14.5547L8.83205 13.4453C9.31245 14.1659 9.72911 14.6647 10.1985 14.9933C10.6398 15.3022 11.1853 15.5 12 15.5C12.8147 15.5 13.3602 15.3022 13.8015 14.9933C14.2709 14.6647 14.6876 14.1659 15.1679 13.4453L16.8321 14.5547C16.3124 15.3341 15.7291 16.0853 14.9485 16.6317C14.1398 17.1978 13.1853 17.5 12 17.5C10.8147 17.5 9.8602 17.1978 9.05154 16.6317Z"></path>
</svg>