<svg data-preply-ds-component="SvgTokyoUIIcon" xmlns="http://www.w3.org/2000/svg" viewBox="0 0 24 24">
    <path fill-rule="evenodd" d="M15.291 4.055 12 2 8.709 4.055l-3.78.874-.874 3.78L2 12l2.055 3.291.874 3.78 3.78.874L12 22l3.291-2.055 3.78-.874.874-3.78L22 12l-2.055-3.291-.874-3.78-3.78-.874ZM10.981 7.2l.126 6.608H12.9l.126-6.608h-2.044Zm.224 9.688c.224.215.49.322.798.322.308 0 .57-.107.784-.322a1.09 1.09 0 0 0 .336-.798c0-.308-.112-.57-.336-.784a1.045 1.045 0 0 0-.784-.336 1.09 1.09 0 0 0-.798.336 1.067 1.067 0 0 0-.322.784c0 .308.108.574.322.798Z" clip-rule="evenodd"></path>
</svg>