<svg data-preply-ds-component="SvgTokyoUIIcon" viewBox="0 0 24 24" xmlns="http://www.w3.org/2000/svg">
<path fill-rule="evenodd" clip-rule="evenodd" d="M7.98584 12C9.86847 12.0002 11.4462 13.3009 11.8716 15.0527H21.9849V17.0527H11.8442C11.382 18.7507 9.83026 19.9998 7.98584 20C6.14133 20 4.58982 18.7507 4.12744 17.0527H2.01514V15.0527H4.09912C4.52452 13.3008 6.10302 12 7.98584 12ZM7.98584 14C6.88127 14 5.98584 14.8954 5.98584 16C5.986 17.1044 6.88137 18 7.98584 18C9.09014 17.9998 9.98567 17.1043 9.98584 16C9.98584 14.8956 9.09024 14.0002 7.98584 14Z"></path>
<path fill-rule="evenodd" clip-rule="evenodd" d="M16.0142 4C14.1315 4.00017 12.5538 5.3009 12.1284 7.05273H2.01514V9.05273H12.1558C12.618 10.7507 14.1697 11.9998 16.0142 12C17.8587 12 19.4102 10.7507 19.8726 9.05273H21.9849V7.05273H19.9009C19.4755 5.30076 17.897 4 16.0142 4ZM16.0142 6C17.1187 6 18.0142 6.89543 18.0142 8C18.014 9.10443 17.1186 10 16.0142 10C14.9099 9.9998 14.0143 9.10431 14.0142 8C14.0142 6.89555 14.9098 6.0002 16.0142 6Z"></path>
</svg>