<svg viewBox="0 0 331 303" fill="none" xmlns="http://www.w3.org/2000/svg"><path d="M179.564 302c83.119 0 150.5-67.381 150.5-150.5S262.683 1 179.564 1s-150.5 67.381-150.5 150.5S96.445 302 179.564 302Z" fill="#D48D24" stroke="#000" stroke-width="1.5" stroke-miterlimit="10"></path><path d="M151.5 302c83.119 0 150.5-67.381 150.5-150.5S234.619 1 151.5 1 1 68.381 1 151.5 68.381 302 151.5 302Z" fill="#FECC45" stroke="#000" stroke-width="1.5" stroke-miterlimit="10"></path><path d="M150.919 116.601s14.686-32.717 51.039-32.717c30.245 0 51.039 21.23 51.039 47.113 0 43.914-63.253 55.401-102.223 116.474-38.97-61.073-102.224-72.415-102.224-116.474 0-25.883 20.794-47.113 51.04-47.113 36.497 0 51.329 32.717 51.329 32.717Z" fill="#DA4272" stroke="#000" stroke-width="1.5" stroke-miterlimit="10"></path><path d="M219.697 149.173c.437 3.49 2.763 6.979 6.253 7.416 3.635.436 6.689-2.618 8.725-5.671 8.434-13.087 12.941-36.062-3.345-45.659-2.472-1.454-5.38-2.472-8.288-2.036-9.743 1.309-7.852 8.434-5.089 15.268 1.89 4.653 3.926 9.597 4.071 14.541.291 5.671-2.763 10.034-2.472 15.559 0 .146 0 .291.145.582Z" fill="#EDEDED" stroke="#000" stroke-width="1.5" stroke-miterlimit="10"></path></svg>