<svg viewBox="0 0 24 24" data-preply-ds-component="SvgTokyoUIIcon" xmlns="http://www.w3.org/2000/svg"><path d="M15.237 5.227a1 1 0 0 1 1.414 0l2.828 2.828.07.076a1 1 0 0 1-.07 1.338l-3.583 3.583-9.806 9.805-4.242-4.243L13.075 7.387v.001zM4.677 18.614l1.413 1.415 8.39-8.39-1.413-1.416zm15.332-4.854.991.51-.99.508-.51.991-.51-.991-.99-.509.99-.509.51-.99zm-5.52-4.958 1.415 1.414 1.454-1.454-1.414-1.414zM9.81 3.96l2.191.81-2.19.81L9 7.77l-.81-2.19L6 4.77l2.19-.81L9 1.77zm11.2-.199.991.51-.99.508-.51.991-.51-.991-.99-.509.99-.509.51-.99z"></path></svg>