<svg data-preply-ds-component="SvgTokyoUIIcon" xmlns="http://www.w3.org/2000/svg" viewBox="0 0 24 24">
    <path fill-rule="evenodd" d="m6 3 .81 2.19L9 6l-2.19.81L6 9l-.81-2.19L3 6l2.19-.81L6 3Zm9.43 6.57-1.444-3.905L13 3l-.986 2.665-1.445 3.904-3.904 1.445L4 12l2.665.986 3.904 1.445 1.445 3.904L13 21l.986-2.665 1.445-3.904 3.904-1.445L22 12l-2.665-.986-3.904-1.445ZM16.67 12l-1.881-.696-.798-.295-.295-.798L13 8.331l-.696 1.88-.295.798-.798.295-1.88.696 1.88.696.798.295.295.798.696 1.88.696-1.88.295-.798.798-.295 1.88-.696Zm-9.86 5.19L6 15l-.81 2.19L3 18l2.19.81L6 21l.81-2.19L9 18l-2.19-.81Z" clip-rule="evenodd"></path>
</svg>