<svg xmlns="http://www.w3.org/2000/svg" viewBox="0 0 48 48" width="48" height="48">
<path fill="#33d375" d="M33,8c0-2.209-1.791-4-4-4s-4,1.791-4,4c0,1.254,0,9.741,0,11c0,2.209,1.791,4,4,4s4-1.791,4-4C33,17.741,33,9.254,33,8z"/>
<path fill="#33d375" d="M43,19c0,2.209-1.791,4-4,4c-1.195,0-4,0-4,0s0-2.986,0-4c0-2.209,1.791-4,4-4S43,16.791,43,19z"/>
<path fill="#40c4ff" d="M8,14c-2.209,0-4,1.791-4,4s1.791,4,4,4c1.254,0,9.741,0,11,0c2.209,0,4-1.791,4-4s-1.791-4-4-4C17.741,14,9.254,14,8,14z"/>
<path fill="#40c4ff" d="M19,4c2.209,0,4,1.791,4,4c0,1.195,0,4,0,4s-2.986,0-4,0c-2.209,0-4-1.791-4-4S16.791,4,19,4z"/>
<path fill="#e91e63" d="M14,40c0,2.209,1.791,4,4,4s4-1.791,4-4c0-1.254,0-9.741,0-11c0-2.209-1.791-4-4-4s-4,1.791-4,4C14,30.259,14,38.746,14,40z"/>
<path fill="#e91e63" d="M4,29c0-2.209,1.791-4,4-4c1.195,0,4,0,4,0s0,2.986,0,4c0,2.209-1.791,4-4,4S4,31.209,4,29z"/>
<path fill="#ffc107" d="M40,33c2.209,0,4-1.791,4-4s-1.791-4-4-4c-1.254,0-9.741,0-11,0c-2.209,0-4,1.791-4,4s1.791,4,4,4C30.259,33,38.746,33,40,33z"/>
<path fill="#ffc107" d="M29,43c-2.209,0-4-1.791-4-4c0-1.195,0-4,0-4s2.986,0,4,0c2.209,0,4,1.791,4,4S31.209,43,29,43z"/>
</svg>
